HIERARCHY
ROOT Hips
{
	OFFSET 0.000000 0.000000 0.000000
	CHANNELS 6 Xposition Yposition Zposition Zrotation Yrotation Xrotation 
	JOINT LHipJoint
	{
		OFFSET 0.000000 0.000000 0.000000
		CHANNELS 3 Zrotation Yrotation Xrotation
		JOINT LeftUpLeg
		{
			OFFSET 1.363060 -1.794630 0.839290
			CHANNELS 3 Zrotation Yrotation Xrotation
			JOINT LeftLeg
			{
				OFFSET 2.448110 -6.726130 0.000000
				CHANNELS 3 Zrotation Yrotation Xrotation
				JOINT LeftFoot
				{
					OFFSET 2.562200 -7.039590 0.000000
					CHANNELS 3 Zrotation Yrotation Xrotation
					JOINT LeftToeBase
					{
						OFFSET 0.157640 -0.433110 2.322550
						CHANNELS 3 Zrotation Yrotation Xrotation
						End Site
						{
							OFFSET 0.000000 0.000000 0.000000
						}
					}
				}
			}
		}
	}
	JOINT RHipJoint
	{
		OFFSET 0.000000 0.000000 0.000000
		CHANNELS 3 Zrotation Yrotation Xrotation
		JOINT RightUpLeg
		{
			OFFSET -1.305520 -1.794630 0.839290
			CHANNELS 3 Zrotation Yrotation Xrotation
			JOINT RightLeg
			{
				OFFSET -2.542530 -6.985550 0.000000
				CHANNELS 3 Zrotation Yrotation Xrotation
				JOINT RightFoot
				{
					OFFSET -2.568260 -7.056230 0.000000
					CHANNELS 3 Zrotation Yrotation Xrotation
					JOINT RightToeBase
					{
						OFFSET -0.164730 -0.452590 2.363150
						CHANNELS 3 Zrotation Yrotation Xrotation
						End Site
						{
							OFFSET 0.000000 0.000000 0.000000
						}
					}
				}
			}
		}
	}
}
MOTION
Frames: 16
Frame Time: 0.008333
8.054841 15.797956 0.902614 -17.828338 82.463462 13.246570 -9.753200 -1.824054 -2.811801 -12.397261 2.991876 -68.397074 1.040631 5.855002 78.690544 3.751483 17.162157 -22.197092 -3.918399 0.000000 -16.329700 9.255117 0.667845 -2.809911 17.191566 -1.027924 -53.765839 1.410487 -4.937488 64.845547 -0.896366 2.453469 -24.714404 0.133100 0.000000 -32.632600
8.191488 15.824632 0.907712 -17.946659 82.494221 13.171712 -9.580998 -1.850669 -2.680383 -12.822925 2.727239 -69.598800 0.886340 5.820928 77.419564 3.846363 17.251345 -22.425965 -3.987500 -0.000000 -15.911500 9.291363 0.615934 -2.925795 17.111452 -1.486514 -53.006785 1.475424 -4.894214 64.349065 -0.827501 2.770289 -24.492674 0.047600 -0.000000 -33.631400
8.330070 15.849869 0.911948 -18.232924 82.551538 12.925935 -9.410821 -1.865778 -2.537339 -13.225233 2.441856 -70.729184 0.719482 5.774976 76.034983 3.932337 17.269307 -22.646451 -4.038600 -0.000000 -15.595000 9.329451 0.558448 -3.043266 17.038727 -1.954562 -52.232737 1.540744 -4.852104 63.844374 -0.756972 3.092156 -24.249175 -0.038300 -0.000000 -34.588300
8.470750 15.873591 0.915259 -18.702680 82.632289 12.494549 -9.243653 -1.869949 -2.382943 -13.600140 2.138315 -71.782380 0.540017 5.716245 74.534731 4.005929 17.201470 -22.850763 -4.065700 -0.000000 -15.399800 9.369611 0.495188 -3.161861 16.974398 -2.428211 -51.445190 1.605925 -4.811576 63.337346 -0.685431 3.417021 -23.987700 -0.123499 0.000000 -35.486500
8.613566 15.895645 0.917755 -19.340388 82.732044 11.892263 -9.080753 -1.864017 -2.219003 -13.946803 1.821468 -72.751529 0.349012 5.644098 72.918560 4.063767 17.041172 -23.013506 -4.059200 0.000000 -15.463700 9.412119 0.426675 -3.281620 16.914724 -2.904793 -50.644288 1.669097 -4.772728 62.830310 -0.613122 3.737814 -23.695926 -0.206400 0.000000 -36.511700
8.758597 15.916005 0.919397 -20.159659 82.846486 11.105055 -8.923275 -1.849552 -2.046886 -14.262418 1.496809 -73.635208 0.148482 5.558522 71.195536 4.103512 16.787304 -23.117418 -4.013500 0.000000 -15.737400 9.456903 0.352567 -3.402338 16.860600 -3.381926 -49.829442 1.730177 -4.735716 62.324427 -0.541232 4.049650 -23.378021 -0.285200 0.000000 -37.692101
8.906027 15.934546 0.920183 -21.182474 82.972643 10.112055 -8.772322 -1.828472 -1.867222 -14.543986 1.169057 -74.437872 -0.059100 5.460268 69.383372 4.124604 16.445501 -23.158943 -3.929600 -0.000000 -16.118800 9.503471 0.272160 -3.523280 16.814361 -3.857625 -49.001300 1.790561 -4.700667 61.820998 -0.471445 4.351433 -23.053471 -0.359300 -0.000000 -38.936900
9.055903 15.951172 0.920169 -22.401673 83.107017 8.919888 -8.629091 -1.802581 -1.681541 -14.792388 0.842527 -75.164762 -0.270950 5.350661 67.503744 4.127563 16.028039 -23.135173 -3.810700 0.000000 -16.489400 9.551212 0.185382 -3.644164 16.774839 -4.331799 -48.159293 1.850818 -4.667332 61.317772 -0.404796 4.640031 -22.729481 -0.428100 -0.000000 -40.267900
9.208233 15.965832 0.919497 -23.815960 83.246944 7.528649 -8.494881 -1.774046 -1.491950 -15.008726 0.522619 -75.820943 -0.483392 5.230986 65.577965 4.112955 15.552756 -23.028142 -3.656801 0.000000 -16.990200 9.599509 0.092076 -3.765046 16.740897 -4.804879 -47.300814 1.911315 -4.635290 60.810062 -0.342040 4.911306 -22.407670 -0.490600 -0.000000 -41.752199
9.363111 15.978471 0.918237 -25.423595 83.391459 5.940469 -8.370622 -1.744531 -1.299064 -15.194326 0.210513 -76.415731 -0.694180 5.103193 63.633089 4.083402 15.035537 -22.856353 -3.479200 -0.000000 -17.497599 9.647398 -0.007917 -3.885406 16.712159 -5.278289 -46.426129 1.973678 -4.604154 60.294997 -0.283833 5.167581 -22.103108 -0.547800 -0.000000 -43.300400
9.520530 15.989070 0.916537 -27.225021 83.540675 4.154473 -8.257040 -1.715625 -1.103769 -15.350535 -0.093283 -76.955919 -0.901362 4.968767 61.690648 4.041193 14.491191 -22.631381 -3.286200 0.000000 -18.074400 9.694166 -0.114613 -4.005282 16.687542 -5.754498 -45.533767 2.038508 -4.573395 59.767294 -0.230093 5.409048 -21.815941 -0.600000 -0.000000 -44.943500
9.680652 15.997471 0.914511 -29.200904 83.696425 2.192601 -8.154228 -1.687337 -0.904289 -15.480434 -0.396000 -77.450187 -1.105165 4.829131 59.772595 3.990716 13.929310 -22.402277 -3.095300 0.000000 -18.490900 9.738938 -0.227426 -4.123863 16.663411 -6.237206 -44.628080 2.108224 -4.542880 59.230795 -0.180601 5.648818 -21.574524 -0.651400 0.000000 -46.381200
9.843378 16.003738 0.912271 -31.380354 83.860586 0.023022 -8.062538 -1.661686 -0.702149 -15.580786 -0.697252 -77.894141 -1.304350 4.683820 57.883842 3.932118 13.356488 -22.163105 -2.906800 -0.000000 -19.037301 9.781712 -0.346541 -4.242453 16.639355 -6.729628 -43.703449 2.181515 -4.512126 58.676751 -0.133915 5.883877 -21.351066 -0.701000 0.000001 -47.823500
10.008862 16.007714 0.909887 -33.754354 84.036160 -2.343121 -7.981402 -1.638366 -0.494884 -15.651487 -1.007444 -78.287201 -1.500605 4.532283 56.030734 3.868775 12.773333 -21.962017 -2.734100 -0.000001 -19.546200 9.822346 -0.471063 -4.360893 16.610057 -7.236776 -42.765288 2.259050 -4.481470 58.111215 -0.088520 6.127492 -21.153845 -0.752300 0.000000 -49.099301
10.177102 16.009329 0.907446 -36.352260 84.225872 -4.936554 -7.910876 -1.618672 -0.281977 -15.687056 -1.331755 -78.617998 -1.693633 4.372239 54.205315 3.800351 12.180079 -21.794900 -2.575800 0.000001 -20.188800 9.861111 -0.600924 -4.480299 16.572353 -7.762466 -41.811782 2.339857 -4.451250 57.535457 -0.042555 6.385670 -20.967809 -0.806701 -0.000000 -50.227701
10.348187 16.008436 0.904926 -39.210211 84.431156 -7.795386 -7.850940 -1.604390 -0.063136 -15.680446 -1.675176 -78.872129 -1.883321 4.201064 52.399129 3.727061 11.576124 -21.667746 -2.432600 0.000001 -20.942300 9.898296 -0.736089 -4.601932 16.522413 -8.310687 -40.842673 2.422272 -4.422283 56.953558 0.005980 6.663632 -20.772551 -0.864400 0.000000 -51.269799
